<svg xmlns="http://www.w3.org/2000/svg" viewBox="0 0 64 64" width="200" height="200">
  <rect width="100%" height="100%" fill="#071226"/>
  <g transform="translate(8,8) scale(0.75)">
    <path d="M28 2C20 2 14 8 14 16v4H10c-3 0-6 3-6 6v4c0 3 3 6 6 6h36c3 0 6-3 6-6v-4c0-3-3-6-6-6h-4v-4c0-8-6-14-14-14z" fill="#00233f" stroke="#00d4ff" stroke-width="1.5"/>
    <circle cx="22" cy="28" r="4" fill="#00d4ff"/>
    <circle cx="42" cy="28" r="3" fill="#ff6f00"/>
    <rect x="24" y="10" width="4" height="8" rx="1" fill="#00d4ff"/>
  </g>
</svg>
